<svg width="64" height="64" viewBox="0 0 64 64" fill="none" xmlns="http://www.w3.org/2000/svg">
<path fill-rule="evenodd" clip-rule="evenodd" d="M44.7463 36.6163C46.309 33.4431 46.2419 28.5865 45.6891 24.39L34.2312 26.8063C35.4201 30.8687 37.3199 35.3387 40.0309 37.6107C40.9511 37.9127 40.9911 37.9259 42.4933 37.61C43.9951 37.2924 44.0264 37.2642 44.7463 36.6163Z" fill="#FFDF6D"/>
<path fill-rule="evenodd" clip-rule="evenodd" d="M31.7123 19.6724L45.1129 16.8465L45.368 17.7443C45.8178 19.3275 46.3398 21.6722 46.6805 24.2593C46.9621 26.3971 47.1232 28.7241 47.0097 30.938C46.8968 33.1401 46.5092 35.2998 45.6434 37.058L45.5583 37.2307L45.4152 37.3595C45.3981 37.375 45.381 37.3904 45.364 37.4057C45.0492 37.6896 44.7531 37.9566 44.3213 38.1497C44.1316 38.2346 43.9196 38.3033 43.6751 38.3677L46.4068 51.3214L49.5007 50.6689C50.0411 50.555 50.5716 50.9007 50.6855 51.4411C50.7995 51.9815 50.4538 52.5119 49.9134 52.6259L41.7686 54.3435C41.2282 54.4575 40.6977 54.1118 40.5838 53.5714C40.4698 53.031 40.8155 52.5005 41.3559 52.3865L44.4498 51.7341L41.7181 38.7804C41.4684 38.8202 41.2467 38.843 41.0389 38.842C40.5659 38.8396 40.1872 38.7149 39.7845 38.5823C39.7628 38.5751 39.7409 38.568 39.719 38.5608L39.5361 38.5007L39.3885 38.3771C37.8865 37.1182 36.6598 35.2989 35.6673 33.3299C34.6695 31.3504 33.8771 29.1565 33.2715 27.0871C32.5386 24.5826 32.0693 22.2268 31.8415 20.5968L31.7123 19.6724ZM42.2869 36.6314C41.4943 36.7981 41.2302 36.8429 41.0488 36.842C40.9399 36.8414 40.8609 36.8273 40.5303 36.7214C39.3791 35.7078 38.3487 34.2061 37.4532 32.4297C36.6857 30.9069 36.0381 29.2243 35.507 27.5591L44.8261 25.5939C45.0126 27.3317 45.0996 29.1326 45.0123 30.8356C44.9104 32.8224 44.5741 34.6122 43.9303 36.0044C43.6706 36.2347 43.6041 36.2796 43.5046 36.3241C43.339 36.3982 43.0793 36.4638 42.2869 36.6314ZM44.5678 23.6044C44.314 21.9308 43.992 20.4029 43.6853 19.1915L33.9653 21.2413C34.1738 22.4734 34.4963 24.0012 34.9398 25.6347L44.5678 23.6044Z" fill="black"/>
</svg>
