<svg width="64" height="64" viewBox="0 0 64 64" fill="none" xmlns="http://www.w3.org/2000/svg">
<path fill-rule="evenodd" clip-rule="evenodd" d="M22.9126 39.6523C25.5294 37.2725 27.2468 32.7292 28.2703 28.622L16.724 26.6714C16.3415 30.8869 16.471 35.7421 18.1608 38.8495C18.9063 39.4677 18.9388 39.4946 20.4522 39.7513C21.9659 40.0061 22.0054 39.9913 22.9126 39.6523Z" fill="#FFDF6D"/>
<path fill-rule="evenodd" clip-rule="evenodd" d="M16.9945 19.1108L30.4986 21.3922L30.4069 22.321C30.2451 23.959 29.8716 26.3318 29.2406 28.8639C28.7192 30.9561 28.0163 33.1803 27.0994 35.1986C26.1874 37.2061 25.0353 39.0736 23.5854 40.3921L23.443 40.5217L23.2626 40.5891C23.241 40.5972 23.2195 40.6052 23.1981 40.6133C22.8011 40.762 22.4278 40.902 21.9553 40.9234C21.7476 40.9329 21.5252 40.9191 21.2741 40.8894L19.0688 53.943L22.1866 54.4698C22.7311 54.5618 23.098 55.0778 23.006 55.6224C22.914 56.1669 22.398 56.5338 21.8534 56.4418L13.6458 55.0552C13.1012 54.9632 12.7343 54.4472 12.8263 53.9026C12.9183 53.358 13.4344 52.9912 13.9789 53.0832L17.0967 53.6099L19.302 40.5562C19.0551 40.5018 18.8405 40.4418 18.6475 40.3646C18.2083 40.1891 17.9016 39.9343 17.5755 39.6634C17.5579 39.6487 17.5403 39.6341 17.5225 39.6193L17.3743 39.4964L17.2823 39.3273C16.3461 37.6056 15.8714 35.4633 15.6695 33.2676C15.4665 31.0601 15.5333 28.7284 15.7281 26.581C15.9639 23.9823 16.3906 21.6184 16.776 20.0182L16.9945 19.1108ZM20.6188 38.7653C19.8202 38.6298 19.5581 38.5747 19.3896 38.5074C19.2885 38.467 19.2201 38.4249 18.9514 38.2053C18.2518 36.8402 17.8433 35.0655 17.6611 33.0844C17.505 31.3863 17.5191 29.5834 17.6351 27.8395L27.0261 29.426C26.5628 31.1113 25.9838 32.8188 25.2785 34.3713C24.4557 36.1826 23.4868 37.7247 22.3776 38.7841C22.0516 38.9032 21.9732 38.9206 21.8644 38.9255C21.6832 38.9338 21.4175 38.8997 20.6188 38.7653ZM27.5149 27.4803C27.892 25.8301 28.1523 24.2905 28.3109 23.051L18.5159 21.3962C18.2584 22.619 17.9985 24.1587 17.8126 25.8411L27.5149 27.4803Z" fill="black"/>
</svg>
